<svg width="496" height="172" viewBox="0 0 496 172" fill="none" xmlns="http://www.w3.org/2000/svg">
<rect x="1.5" y="1.5" width="493.009" height="169" rx="26.5" stroke="white" stroke-width="3"/>
<path d="M107.614 71.5264C107.079 71.9359 97.6443 77.1867 97.6443 88.8619C97.6443 102.366 109.65 107.144 110.009 107.262C109.954 107.553 108.102 113.805 103.679 120.175C99.7359 125.781 95.6173 131.377 89.352 131.377C83.0866 131.377 81.4742 127.783 74.2414 127.783C67.1929 127.783 64.6867 131.495 58.9558 131.495C53.2248 131.495 49.226 126.308 44.6284 119.938C39.3028 112.458 35 100.838 35 89.8083C35 72.1179 46.6462 62.7358 58.1081 62.7358C64.1984 62.7358 69.2752 66.6852 73.0989 66.6852C76.7383 66.6852 82.414 62.4992 89.3428 62.4992C91.9687 62.4992 101.404 62.7358 107.614 71.5264ZM86.0534 55.0099C88.9189 51.652 90.9459 46.9928 90.9459 42.3336C90.9459 41.6875 90.8907 41.0323 90.7709 40.5045C86.1087 40.6774 80.562 43.5712 77.2174 47.4023C74.5915 50.3507 72.1407 55.0099 72.1407 59.7328C72.1407 60.4426 72.2604 61.1524 72.3157 61.3799C72.6106 61.4345 73.0897 61.4982 73.5688 61.4982C77.7518 61.4982 83.0129 58.7318 86.0534 55.0099Z" fill="white"/>
<path d="M139.348 59C138.109 59 137.365 58.2207 137.365 56.9456V35.4981C137.365 34.223 138.109 33.4437 139.348 33.4437H146.379C153.977 33.4437 158.476 38.1193 158.476 46.1776C158.476 54.2536 153.995 59 146.379 59H139.348ZM141.332 55.5642H146.007C151.427 55.5642 154.42 52.2523 154.42 46.213C154.42 40.1914 151.409 36.8618 146.007 36.8618H141.332V55.5642ZM169.81 59.3542C164.48 59.3542 160.973 55.6881 160.973 49.6843C160.973 43.6981 164.497 40.032 169.81 40.032C175.124 40.032 178.648 43.6981 178.648 49.6843C178.648 55.6881 175.141 59.3542 169.81 59.3542ZM169.81 56.2017C172.821 56.2017 174.752 53.8285 174.752 49.6843C174.752 45.5577 172.803 43.1845 169.81 43.1845C166.817 43.1845 164.869 45.5577 164.869 49.6843C164.869 53.8285 166.817 56.2017 169.81 56.2017ZM187.131 59.3365C185.874 59.3365 185.165 58.7521 184.776 57.4061L180.525 42.7594C180.384 42.3344 180.33 41.9979 180.33 41.6791C180.33 40.6873 181.074 40.032 182.19 40.032C183.146 40.032 183.713 40.5456 183.961 41.626L187.308 55.0328H187.379L190.921 41.7677C191.187 40.6342 191.949 40.032 193.117 40.032C194.269 40.032 195.013 40.6342 195.278 41.7677L198.838 55.0328H198.927L202.274 41.626C202.522 40.5456 203.071 40.032 204.027 40.032C205.143 40.032 205.869 40.6873 205.869 41.6791C205.869 41.9979 205.816 42.3167 205.692 42.7594L201.441 57.4061C201.07 58.7166 200.29 59.3365 199.033 59.3365C197.705 59.3365 196.961 58.7698 196.606 57.4061L193.117 45.0441H193.029L189.575 57.4061C189.221 58.7166 188.424 59.3365 187.131 59.3365ZM210.368 59.3365C209.234 59.3365 208.455 58.5749 208.455 57.3175V41.9625C208.455 40.7936 209.163 40.032 210.279 40.032C211.377 40.032 212.139 40.7936 212.139 41.9802V43.4502H212.227C213.237 41.3249 215.185 40.0497 218.054 40.0497C222.163 40.0497 224.518 42.6709 224.518 46.9391V57.3175C224.518 58.5749 223.721 59.3365 222.588 59.3365C221.472 59.3365 220.675 58.5749 220.675 57.3175V47.683C220.675 44.8847 219.364 43.3439 216.708 43.3439C214.016 43.3439 212.28 45.2566 212.28 48.1434V57.3175C212.28 58.5749 211.483 59.3365 210.368 59.3365ZM230.274 59.3365C229.158 59.3365 228.361 58.5749 228.361 57.3175V35.1262C228.361 33.8688 229.158 33.1072 230.274 33.1072C231.39 33.1072 232.187 33.8688 232.187 35.1262V57.3175C232.187 58.5749 231.39 59.3365 230.274 59.3365ZM244.124 59.3542C238.793 59.3542 235.286 55.6881 235.286 49.6843C235.286 43.6981 238.811 40.032 244.124 40.032C249.437 40.032 252.961 43.6981 252.961 49.6843C252.961 55.6881 249.455 59.3542 244.124 59.3542ZM244.124 56.2017C247.135 56.2017 249.065 53.8285 249.065 49.6843C249.065 45.5577 247.117 43.1845 244.124 43.1845C241.131 43.1845 239.183 45.5577 239.183 49.6843C239.183 53.8285 241.131 56.2017 244.124 56.2017ZM261.374 59.3188C257.725 59.3188 255.157 57.0518 255.157 53.7046C255.157 50.4458 257.672 48.4445 262.082 48.1966L267.201 47.8955V46.4609C267.201 44.3888 265.801 43.1491 263.464 43.1491C261.622 43.1491 260.4 43.8044 259.337 45.5046C258.948 46.0713 258.452 46.3193 257.779 46.3193C256.822 46.3193 256.132 45.6817 256.132 44.7253C256.132 44.3357 256.238 43.9106 256.468 43.4856C257.442 41.378 260.258 40.032 263.605 40.032C268.122 40.032 271.008 42.4229 271.008 46.1599V57.4061C271.008 58.6104 270.247 59.3365 269.167 59.3365C268.104 59.3365 267.378 58.6458 267.342 57.5123V55.9361H267.254C266.173 58.0082 263.8 59.3188 261.374 59.3188ZM262.419 56.2903C265.093 56.2903 267.201 54.4484 267.201 52.0221V50.5521L262.596 50.8354C260.311 50.9948 259.018 52.0043 259.018 53.5983C259.018 55.2277 260.382 56.2903 262.419 56.2903ZM281.723 59.3188C277.012 59.3188 273.895 55.5642 273.895 49.6843C273.895 43.8044 277.012 40.0674 281.688 40.0674C284.362 40.0674 286.487 41.4134 287.532 43.4679H287.603V35.1262C287.603 33.8688 288.4 33.1072 289.534 33.1072C290.649 33.1072 291.446 33.8688 291.446 35.1262V57.4238C291.446 58.6281 290.667 59.3365 289.551 59.3365C288.471 59.3365 287.603 58.6281 287.603 57.4238V55.6881H287.55C286.594 57.8665 284.628 59.3188 281.723 59.3188ZM282.733 56.0778C285.673 56.0778 287.639 53.5806 287.639 49.6843C287.639 45.8234 285.673 43.2908 282.733 43.2908C279.704 43.2908 277.809 45.7702 277.809 49.6843C277.809 53.616 279.704 56.0778 282.733 56.0778ZM305.792 59.3365C304.623 59.3365 303.861 58.6104 303.861 57.3352V43.397H302.533C301.63 43.397 301.01 42.8657 301.01 41.9093C301.01 40.9884 301.63 40.4039 302.533 40.4039H303.861V38.5798C303.861 34.9668 305.615 33.2843 308.82 33.2666C310.857 33.2666 311.831 33.9219 311.831 34.9491C311.831 35.569 311.53 35.9409 310.91 36.118C310.645 36.1888 310.326 36.242 309.936 36.242C308.324 36.2597 307.651 37.0212 307.651 38.7214V40.4039H310.166C311.07 40.4039 311.689 40.9884 311.689 41.9093C311.689 42.8657 311.07 43.397 310.166 43.397H307.705V57.3352C307.705 58.6104 306.943 59.3365 305.792 59.3365ZM321.696 59.3542C316.365 59.3542 312.858 55.6881 312.858 49.6843C312.858 43.6981 316.383 40.032 321.696 40.032C327.009 40.032 330.534 43.6981 330.534 49.6843C330.534 55.6881 327.027 59.3542 321.696 59.3542ZM321.696 56.2017C324.707 56.2017 326.637 53.8285 326.637 49.6843C326.637 45.5577 324.689 43.1845 321.696 43.1845C318.703 43.1845 316.755 45.5577 316.755 49.6843C316.755 53.8285 318.703 56.2017 321.696 56.2017ZM335.404 59.3365C334.253 59.3365 333.491 58.5572 333.491 57.3175V41.9625C333.491 40.7936 334.235 40.032 335.315 40.032C336.378 40.032 337.122 40.7936 337.122 41.9625V43.5564H337.21C337.724 41.4666 339.442 40.0674 341.302 40.0674C341.975 40.0674 342.488 40.2268 342.807 40.5279C343.161 40.8113 343.321 41.2718 343.321 41.8739C343.321 42.4761 343.126 42.9188 342.754 43.2199C342.364 43.5564 341.797 43.7158 341 43.7158C338.379 43.7335 337.317 45.4869 337.317 47.8069V57.3175C337.317 58.5572 336.537 59.3365 335.404 59.3365Z" fill="white"/>
<path d="M143.83 129.601C141.428 129.601 140.002 128.099 140.002 125.584V79.5648C140.002 76.2991 142.066 74.2347 145.407 74.2347C148.26 74.2347 149.949 75.5109 151.225 78.6639L167.253 117.589H167.553L183.544 78.6639C184.82 75.5484 186.546 74.2347 189.474 74.2347C192.74 74.2347 194.804 76.2616 194.804 79.5648V125.584C194.804 128.099 193.341 129.601 190.976 129.601C188.573 129.601 187.109 128.099 187.109 125.584V89.1365H186.847L171.757 125.509C170.856 127.686 169.505 128.662 167.403 128.662C165.301 128.662 163.912 127.686 163.049 125.584L147.922 89.1365H147.659V125.584C147.659 128.099 146.233 129.601 143.83 129.601ZM209.017 129.676C201.285 129.676 195.842 124.871 195.842 117.777C195.842 110.87 201.172 106.628 210.519 106.103L221.367 105.465V102.424C221.367 98.0326 218.401 95.4051 213.446 95.4051C209.543 95.4051 206.953 96.7939 204.7 100.397C203.875 101.599 202.824 102.124 201.397 102.124C199.37 102.124 197.906 100.773 197.906 98.7458C197.906 97.92 198.132 97.0191 198.62 96.1183C200.684 91.6515 206.652 88.7987 213.747 88.7987C223.318 88.7987 229.437 93.8661 229.437 101.786V125.622C229.437 128.174 227.823 129.713 225.533 129.713C223.281 129.713 221.742 128.249 221.667 125.847V122.506H221.479C219.189 126.898 214.16 129.676 209.017 129.676ZM211.232 123.257C216.9 123.257 221.367 119.353 221.367 114.211V111.095L211.607 111.696C206.765 112.034 204.025 114.173 204.025 117.551C204.025 121.005 206.915 123.257 211.232 123.257ZM248.83 129.751C237.531 129.751 230.174 121.906 230.174 109.331C230.174 96.8315 237.494 88.7987 248.754 88.7987C256.374 88.7987 262.906 92.8526 264.632 98.3704C264.858 99.0086 265.008 99.6842 265.008 100.247C265.008 102.312 263.544 103.588 261.554 103.588C259.828 103.588 258.852 102.912 257.876 101.111C255.849 97.357 253.071 95.5552 248.905 95.5552C242.561 95.5552 238.432 100.848 238.432 109.256C238.432 117.852 242.636 122.957 248.905 122.957C253.296 122.957 255.961 121.005 257.876 117.589C259.002 115.637 259.865 114.961 261.629 114.961C263.619 114.961 265.083 116.313 265.083 118.34C265.083 118.978 264.933 119.653 264.632 120.442C262.568 125.884 256.149 129.751 248.83 129.751ZM290.669 129.901C275.054 129.901 265.294 119.166 265.294 101.936C265.294 84.7073 275.054 73.9344 290.669 73.9344C306.246 73.9344 316.043 84.7073 316.043 101.936C316.043 119.166 306.246 129.901 290.669 129.901ZM290.669 122.506C300.954 122.506 307.41 114.549 307.41 101.936C307.41 89.2867 300.954 81.329 290.669 81.329C280.384 81.329 273.89 89.2867 273.89 101.936C273.89 114.549 280.384 122.506 290.669 122.506ZM337.163 129.901C326.653 129.901 319.446 125.359 317.344 119.053C317.081 118.227 316.893 117.326 316.893 116.425C316.893 113.986 318.395 112.409 320.684 112.409C322.599 112.409 323.837 113.272 324.663 115.299C326.352 120.367 331.27 122.731 337.538 122.731C344.407 122.731 349.325 119.203 349.325 114.361C349.325 110.157 346.472 107.529 339.227 105.953L333.297 104.714C322.486 102.424 317.569 97.3945 317.569 89.587C317.569 80.3155 325.714 73.9344 337.238 73.9344C346.584 73.9344 353.941 78.3261 356.044 85.5706C356.231 86.0961 356.344 86.7342 356.344 87.5225C356.344 89.6996 354.805 91.126 352.628 91.126C350.601 91.126 349.362 90.1875 348.499 88.2357C346.659 83.2433 342.53 81.1038 337.125 81.1038C330.782 81.1038 326.09 84.1818 326.09 89.1365C326.09 93.0778 328.905 95.7054 335.924 97.2068L341.817 98.4455C353.191 100.848 357.845 105.39 357.845 113.272C357.845 123.482 349.812 129.901 337.163 129.901Z" fill="white"/>
</svg>
